<?xml version="1.0" standalone="no"?>
<!DOCTYPE svg PUBLIC "-//W3C//DTD SVG 20010904//EN"
 "http://www.w3.org/TR/2001/REC-SVG-20010904/DTD/svg10.dtd">
<svg version="1.0" xmlns="http://www.w3.org/2000/svg"
 width="500.000000pt" height="500.000000pt" viewBox="0 0 500.000000 500.000000"
 preserveAspectRatio="xMidYMid meet">

<g transform="translate(0.000000,500.000000) scale(0.100000,-0.100000)"
fill="#000000" stroke="none">
<path d="M1902 3024 c-40 -28 -24 -88 31 -107 27 -10 21 -30 -24 -81 -23 -26
-39 -50 -35 -53 13 -13 85 51 105 93 50 106 0 202 -77 148z"/>
<path d="M683 2910 c-39 -24 -59 -54 -68 -102 -12 -63 9 -103 78 -151 34 -24
76 -49 94 -56 113 -45 98 -181 -20 -181 -63 0 -101 30 -140 110 l-21 45 -4
-45 c-8 -104 12 -127 120 -137 111 -11 172 20 203 102 34 87 6 135 -119 204
-75 41 -126 94 -126 131 0 11 11 32 25 45 51 52 131 21 170 -64 10 -23 22 -41
27 -41 4 0 8 31 8 68 l0 69 -51 11 c-75 18 -139 15 -176 -8z"/>
<path d="M1159 2902 c-62 -32 -113 -94 -130 -155 -16 -60 -7 -173 19 -223 27
-52 102 -120 143 -128 47 -9 134 -7 163 4 39 14 115 89 138 134 26 51 34 140
18 205 -15 62 -80 139 -143 170 -64 31 -141 28 -208 -7z m199 -48 c42 -48 56
-99 56 -204 0 -97 -13 -152 -48 -195 -22 -27 -30 -30 -83 -30 -74 0 -112 25
-144 97 -33 74 -34 232 -2 294 25 46 36 57 78 72 54 20 106 8 143 -34z"/>
<path d="M2154 2916 c-50 -23 -84 -75 -84 -130 0 -26 7 -60 15 -75 16 -31 86
-86 152 -120 51 -25 73 -55 73 -98 0 -49 -29 -73 -90 -73 -43 0 -55 5 -89 36
-22 19 -45 52 -52 72 -21 69 -30 60 -27 -27 l3 -85 50 -13 c165 -45 280 13
278 139 -1 61 -18 81 -123 142 -84 48 -120 92 -120 143 0 55 58 84 115 57 25
-12 44 -32 61 -66 14 -27 29 -46 34 -43 12 7 13 115 2 130 -4 6 -18 11 -32 13
-104 11 -138 11 -166 -2z"/>
<path d="M3620 2914 c-91 -39 -160 -147 -160 -249 0 -193 119 -298 305 -271
102 16 186 142 186 279 0 40 -5 86 -11 102 -16 42 -87 114 -135 136 -49 23
-136 24 -185 3z m151 -37 c19 -12 45 -43 59 -67 22 -40 24 -57 24 -155 0 -95
-3 -117 -23 -159 -44 -89 -145 -103 -212 -27 -44 49 -60 101 -60 196 0 91 14
145 48 185 46 55 108 65 164 27z"/>
<path d="M4162 2909 c-52 -26 -83 -77 -107 -174 -15 -60 -15 -80 -5 -145 26
-160 67 -200 206 -200 58 0 157 23 180 41 6 5 14 46 17 91 4 62 10 85 23 95
10 7 16 15 13 17 -2 2 -48 1 -101 -1 -98 -6 -131 -19 -60 -25 l37 -3 3 -71 c4
-88 -13 -108 -88 -108 -43 0 -55 5 -85 34 -45 43 -65 109 -65 209 0 98 13 142
54 186 30 31 39 35 83 35 60 0 91 -21 129 -86 14 -24 28 -44 30 -44 2 0 4 33
4 74 l0 74 -42 6 c-126 19 -182 18 -226 -5z"/>
<path d="M1590 2915 c0 -3 11 -10 24 -15 23 -8 23 -9 31 -229 4 -121 4 -225 0
-231 -4 -6 -18 -15 -32 -21 -43 -16 -17 -25 81 -27 77 -1 96 1 96 13 0 7 -10
15 -22 17 -15 2 -24 13 -31 38 -10 40 -4 386 8 413 4 9 18 20 31 23 54 14 18
24 -81 24 -58 0 -105 -2 -105 -5z"/>
<path d="M2608 2903 c22 -15 22 -18 22 -243 0 -225 0 -228 -22 -243 -23 -15
-23 -15 16 -22 70 -14 249 1 294 24 46 24 72 70 72 132 0 36 -6 47 -40 81 -23
21 -48 38 -56 38 -12 0 -8 9 14 34 67 77 48 171 -41 205 -16 6 -85 11 -155 10
-118 0 -125 -1 -104 -16z m229 -52 c24 -35 30 -89 13 -120 -10 -20 -46 -36
-97 -45 l-33 -5 0 92 c0 105 7 119 60 115 26 -2 40 -11 57 -37z m16 -221 c52
-41 56 -143 9 -181 -39 -30 -122 -24 -139 11 -13 26 -18 172 -6 183 3 4 30 7
58 7 38 0 60 -6 78 -20z"/>
<path d="M3070 2912 c0 -4 10 -12 23 -17 22 -10 22 -12 25 -238 2 -222 2 -229
-18 -234 -11 -3 -20 -12 -20 -19 0 -11 33 -14 174 -14 l175 0 6 54 c4 29 5 62
3 72 -3 16 -7 13 -21 -14 -26 -48 -71 -72 -138 -72 -43 0 -58 4 -63 16 -3 9
-6 110 -6 225 l0 210 35 15 c19 8 35 16 35 19 0 3 -47 5 -105 5 -58 0 -105 -3
-105 -8z"/>
</g>
</svg>
